<?xml version="1.0" encoding="utf-8"?>
<!-- Generator: Adobe Illustrator 15.1.0, SVG Export Plug-In . SVG Version: 6.00 Build 0)  -->
<!DOCTYPE svg PUBLIC "-//W3C//DTD SVG 1.1//EN" "http://www.w3.org/Graphics/SVG/1.1/DTD/svg11.dtd">
<svg version="1.1" id="Layer_1" xmlns="http://www.w3.org/2000/svg" xmlns:xlink="http://www.w3.org/1999/xlink" x="0px" y="0px"
	 width="1024px" height="1024px" viewBox="0 0 1024 1024" enable-background="new 0 0 1024 1024" xml:space="preserve">
<path fill-rule="evenodd" clip-rule="evenodd" fill="#3B50F2" d="M256,65h512c106.039,0,192,85.961,192,192v512
	c0,106.039-85.961,192-192,192H256c-106.039,0-192-85.961-192-192V257C64,150.961,149.961,65,256,65z"/>
<path fill-rule="evenodd" clip-rule="evenodd" fill="#FFFFFF" d="M785.927,598.327L602.64,716.773
	c-9.412,6.099-17.283,9.189-23.326,9.189c-13.314,0-17.378-14.265-8.943-38.85l26.887-59.049h-51.119
	c-123.025,0-129.058,116.186-129.058,116.186l-0.068,0.48v119.336H288.976v-458.53l-58.861,27.257
	c-8.829,3.178-16.352,4.646-22.379,4.646c-18.98,0-23.198-14.751-8.152-38.934l119.884-194.227
	c17.534-29.035,23.134-43.297,32.214-43.297h1c9.096,0,14.873,14.262,33.696,43.297L506.76,398.505
	c15.172,24.183,10.924,38.934-8.058,38.934c-6.043,0-13.566-1.468-22.378-4.646l-59.312-27.361v146.408
	c31.932-22.604,71.431-37.867,117.951-37.867h67.36c-1.163-5.028-2.496-10.629-4.068-15.176L570.37,438.82
	c-8.435-24.68-4.371-38.787,8.943-38.787c6.043,0,13.914,2.874,23.326,8.922l183.287,118.592
	C840.76,561.388,840.76,561.388,785.927,598.327z"/>
</svg>
