<!DOCTYPE svg PUBLIC "-//W3C//DTD SVG 1.1//EN" "http://www.w3.org/Graphics/SVG/1.1/DTD/svg11.dtd">
<svg id="Layer_1" version="1.1" xmlns="http://www.w3.org/2000/svg" xmlns:xlink="http://www.w3.org/1999/xlink" x="0px" y="0px" width="1024px" height="1024px" viewBox="0 0 1024 1024" enable-background="new 0 0 1024 1024" xml:space="preserve">
<path fill-rule="evenodd" clip-rule="evenodd" fill="#FFFFFF" d="M964.921,581.709H838.803 c-8.641,38.857-24.036,75.171-44.738,107.761l89.259,89.26c5.752,5.75,5.752,15.065,0,20.815l-83.277,83.279 c-5.752,5.75-15.066,5.75-20.817,0l-89.216-89.216c-32.575,20.758-68.889,36.169-107.805,44.809V964.42 c0,8.138-6.598,14.736-14.721,14.736H449.7c-8.138,0-14.729-6.599-14.729-14.736V838.417c-38.915-8.64-75.228-24.051-107.803-44.809 l-89.216,89.216c-5.757,5.75-15.066,5.75-20.83,0l-83.257-83.279c-5.758-5.75-5.758-15.065,0-20.815l89.251-89.26 c-20.708-32.59-36.098-68.903-44.745-1...3,0,14.721,6.584,14.721,14.713v126.011 c38.916,8.639,75.229,24.058,107.805,44.816l89.216-89.209c5.751-5.757,15.065-5.757,20.817,0l83.277,83.257 c5.752,5.765,5.752,15.074,0,20.83l-89.259,89.26c20.702,32.576,36.098,68.889,44.738,107.761h126.118 c8.137,0,14.735,6.591,14.735,14.728v117.789C979.656,575.11,973.058,581.709,964.921,581.709z M508.59,375.61 c-73.172,0-132.48,59.308-132.48,132.48c0,73.174,59.308,132.487,132.48,132.487s132.487-59.313,132.487-132.487 C641.077,434.917,581.763,375.61,508.59,375.61z">
</svg>