<?xml version="1.0" encoding="utf-8"?>
<!-- Generator: Adobe Illustrator 15.1.0, SVG Export Plug-In . SVG Version: 6.00 Build 0)  -->
<!DOCTYPE svg PUBLIC "-//W3C//DTD SVG 1.1//EN" "http://www.w3.org/Graphics/SVG/1.1/DTD/svg11.dtd">
<svg version="1.1" id="Layer_1" xmlns="http://www.w3.org/2000/svg" xmlns:xlink="http://www.w3.org/1999/xlink" x="0px" y="0px"
	 width="1024px" height="1024px" viewBox="0 0 1024 1024" enable-background="new 0 0 1024 1024" xml:space="preserve">
<path fill="#E21414" d="M333.915,961.062L65.1,692.247V333.915L333.915,65.1h358.332l268.813,268.815v358.332L692.247,961.062
	H333.915z"/>
<path fill-rule="evenodd" clip-rule="evenodd" fill="#FFFFFF" d="M568.492,459.466C557.406,523.229,550.86,576.317,548.851,613
	h-71.171c-4.25-44.638-11.542-100.789-21.879-162.707c-10.36-62.02-15.537-101.77-15.537-119.243c0-27.951,6.675-49.981,20.03-66.08
	c13.35-16.099,31.507-24.148,54.474-24.148c20.966,0,37.937,7.242,50.917,21.714c12.976,14.479,19.469,33.824,19.469,58.031
	C585.152,349.272,579.595,395.574,568.492,459.466z M467.406,674.075c12.355-12.478,27.641-18.719,45.863-18.719
	c17.971,0,33.32,6.241,46.05,18.719c12.729,12.483,19.094,27.705,19.094,45.676c0,18.223-6.307,33.637-18.907,46.237
	c-12.605,12.601-28.021,18.906-46.236,18.906c-18.474,0-33.824-6.241-46.05-18.719c-12.232-12.479-18.345-27.951-18.345-46.425
	C448.874,701.78,455.052,686.559,467.406,674.075z"/>
</svg>
