<?xml version="1.0" encoding="utf-8"?>
<!-- Generator: Adobe Illustrator 15.1.0, SVG Export Plug-In . SVG Version: 6.00 Build 0)  -->
<!DOCTYPE svg PUBLIC "-//W3C//DTD SVG 1.1//EN" "http://www.w3.org/Graphics/SVG/1.1/DTD/svg11.dtd">
<svg version="1.1" id="Layer_1" xmlns="http://www.w3.org/2000/svg" xmlns:xlink="http://www.w3.org/1999/xlink" x="0px" y="0px"
	 width="1024px" height="1024px" viewBox="0 0 1024 1024" enable-background="new 0 0 1024 1024" xml:space="preserve">
<path fill="#FFFFFF" d="M422.162,49.93c12.81,0,26.098,20.265,52.678,60.826l171.197,271.68
	c21.344,33.826,15.457,54.451-11.365,54.451c-8.479,0-19.002-2.105-31.449-6.465l-89.357-47.625H330.608l-86.471,47.625
	c-12.417,4.36-23.091,6.465-31.447,6.465c-26.791,0-32.713-20.625-11.458-54.451l171.171-271.68
	C397.116,70.194,409.414,49.93,422.162,49.93"/>
<rect x="331.782" y="287.575" fill="#FFFFFF" width="184.728" height="677.337"/>
<path fill="none" stroke="#FFFFFF" stroke-width="140" stroke-miterlimit="10" d="M425.589,503.091
	c0,0,53.94,265.969,398.801,352.139"/>
</svg>
