<?xml version="1.0" encoding="utf-8"?>
<!-- Generator: Adobe Illustrator 15.1.0, SVG Export Plug-In . SVG Version: 6.00 Build 0)  -->
<!DOCTYPE svg PUBLIC "-//W3C//DTD SVG 1.1//EN" "http://www.w3.org/Graphics/SVG/1.1/DTD/svg11.dtd">
<svg version="1.1" id="Layer_1" xmlns="http://www.w3.org/2000/svg" xmlns:xlink="http://www.w3.org/1999/xlink" x="0px" y="0px"
	 width="1024px" height="1024px" viewBox="0 0 1024 1024" enable-background="new 0 0 1024 1024" xml:space="preserve">
<path fill-rule="evenodd" clip-rule="evenodd" fill="#FFC500" d="M590.32,103.079c0.776,1.423,1.521,2.866,2.227,4.331
	l345.148,671.373C948.038,795.748,954,815.677,954,837c0,59.452-46.329,108.059-104.851,111.749L849,949H163l-0.148-0.251
	C104.33,945.059,58,896.452,58,837c0-16.99,3.803-33.087,10.573-47.514l-0.025-0.042l0.367-0.713
	c0.908-1.897,1.872-3.763,2.881-5.601l347.671-675.75c0.701-1.455,1.441-2.887,2.212-4.3l0.261-0.508h0.031
	C438.335,73.018,469.825,53,506,53c36.176,0,67.664,20.018,84.029,49.573h0.031L590.32,103.079z"/>
<path fill="#FFFFFF" d="M561.492,527.799c-11.086,63.764-17.632,116.852-19.642,153.535h-71.171
	c-4.25-44.639-11.542-100.789-21.879-162.707c-10.36-62.02-15.537-101.77-15.537-119.243c0-27.951,6.675-49.981,20.03-66.08
	c13.35-16.099,31.507-24.148,54.474-24.148c20.966,0,37.937,7.242,50.917,21.714c12.976,14.479,19.469,33.824,19.469,58.031
	C578.152,417.606,572.595,463.907,561.492,527.799z M460.406,742.408c12.355-12.477,27.641-18.719,45.863-18.719
	c17.971,0,33.321,6.242,46.05,18.719c12.729,12.484,19.094,27.705,19.094,45.676c0,18.223-6.307,33.637-18.907,46.238
	c-12.605,12.6-28.021,18.906-46.237,18.906c-18.474,0-33.824-6.242-46.05-18.719c-12.232-12.479-18.345-27.951-18.345-46.426
	C441.874,770.113,448.052,754.893,460.406,742.408z"/>
</svg>
